PathFileType	4	(X/Y/Z)	/Users/niels/Desktop/University/Third Semester/Perception and Action/Exam/Gymnastics Motion Tracking/Code for Gym Tracking/Analyzed Data/Webcam_Backflip/id2002_2_baseline_Sports2D/id2002_2_baseline_Sports2D_px_person00.trc
DataRate	CameraRate	NumFrames	NumMarkers	Units	OrigDataRate	OrigDataStartFrame	OrigNumFrames
29.798657718120804	29.798657718120804	13	22	m	29.798657718120804	74	149
Frame#	Time	Hip			RHip			RKnee			RAnkle			RBigToe			RSmallToe			RHeel			LHip			LKnee			LAnkle			LBigToe			LSmallToe			LHeel			Neck			Head			Nose			RShoulder			RElbow			RWrist			LShoulder			LElbow			LWrist		
		X1	Y1	Z1	X2	Y2	Z2	X3	Y3	Z3	X4	Y4	Z4	X5	Y5	Z5	X6	Y6	Z6	X7	Y7	Z7	X8	Y8	Z8	X9	Y9	Z9	X10	Y10	Z10	X11	Y11	Z11	X12	Y12	Z12	X13	Y13	Z13	X14	Y14	Z14	X15	Y15	Z15	X16	Y16	Z16	X17	Y17	Z17	X18	Y18	Z18	X19	Y19	Z19	X20	Y20	Z20	X21	Y21	Z21	X22	Y22	Z22
74	2.483333333333334	1.0624401688612746	-0.6964559587376523	0.0	1.0037808733629023	-0.6976054012836459	0.0	0.9870404402910712	-1.0316128151665351	0.0	0.9740239687856401	-1.0794912529837375	0.0			0.0			0.0			0.0	1.1111976906828585	-0.7119339156783016	0.0	1.0715266647219428	-1.030106749567851	0.0	1.0463057427621163	-1.0783253395629104	0.0			0.0			0.0			0.0	1.1069872288029006	-0.2530457435077554	0.0	1.2086350303090143	-0.07754532393838283	0.0	1.1972309242525077	-0.19984742844536893	0.0	0.9935343086178287	-0.27511372263382855	0.0	0.9130703867994233	-0.4927864190849814	0.0	0.9481178192287633	-0.7164142032550125	0.0	1.1685865708197354	-0.32896648550809154	0.0	1.2164100045890753	-0.5358447409917697	0.0	1.2207714790415627	-0.3629127035639037	0.0
75	2.516891891891892	1.062328285187307	-0.6963538259133449	0.0	1.0026238284907991	-0.6980084088228482	0.0	0.9849344872838449	-1.0319428049531196	0.0	0.9719555311587497	-1.0799696247217454	0.0			0.0			0.0			0.0	1.1112156394696397	-0.711849432084352	0.0	1.0702424172822311	-1.030681306291097	0.0	1.0452787566019246	-1.0785175935034965	0.0			0.0			0.0			0.0	1.1060824412826435	-0.2505591221949468	0.0	1.207069195237962	-0.07436861809749233	0.0	1.1959896794770888	-0.19659792110752955	0.0	0.9912389660025436	-0.2738278705902683	0.0	0.9124933281860061	-0.4921188085949465	0.0	0.9510708864033096	-0.7140545397858233	0.0	1.1681013034186416	-0.3268364369878202	0.0	1.216288698641124	-0.5338205282939098	0.0	1.219665985343005	-0.36038874275978944	0.0
76	2.550450450450451	1.0621374891364805	-0.6961957094612151	0.0	1.0011799298569504	-0.6984828954655892	0.0	0.9828849708518762	-1.0328322794272558	0.0	0.9699256609808375	-1.0804429848518142	0.0			0.0			0.0			0.0	1.1113008119002152	-0.7117693425427843	0.0	1.069247675759517	-1.0316297850952767	0.0	1.044449855281117	-1.0784602741466236	0.0			0.0			0.0			0.0	1.1051141814109857	-0.24831132813023102	0.0	1.2051100993703603	-0.07108648873556545	0.0	1.1944557307781059	-0.193189671026577	0.0	0.9888335003462265	-0.2725503701471212	0.0	0.9116329220346567	-0.4917348918907224	0.0	0.9539098181720902	-0.7118196982087074	0.0	1.1675754175065223	-0.3249883395351928	0.0	1.216390984624458	-0.5317218578896858	0.0	1.218280943940327	-0.35795785935299035	0.0
77	2.5840090090090095	1.06173417325015	-0.696157801477159	0.0	0.9996369122588858	-0.6991312517089143	0.0	0.9811867853330796	-1.0342018057670177	0.0	0.9680775710450633	-1.080752862608748	0.0			0.0			0.0			0.0	1.111150171741916	-0.7118507925631331	0.0	1.0685650288781285	-1.0328650329377533	0.0	1.0437105685493815	-1.0781702272333453	0.0			0.0			0.0			0.0	1.1039977770010378	-0.2463162024317392	0.0	1.2028002736713472	-0.06780934831475294	0.0	1.1925561682623833	-0.18956236836062273	0.0	0.9864846811393231	-0.27122736204673803	0.0	0.9104678837592366	-0.4916322949757959	0.0	0.9564945970529191	-0.7098774818996073	0.0	1.1668365189512755	-0.3234930568809163	0.0	1.216649095398044	-0.5297183481729139	0.0	1.2165927225817184	-0.3555182863133911	0.0
78	2.617567567567568	1.0610455486513337	-0.6964821937978699	0.0	0.9981632584620079	-0.7001465289358242	0.0	0.9799839325396851	-1.0358765983234521	0.0	0.9665396765891275	-1.0807601753816298	0.0			0.0			0.0			0.0	1.1105962420145308	-0.712336706703232	0.0	1.0682476123657876	-1.034289253610175	0.0	1.0431631027236954	-1.0776932480306955	0.0			0.0			0.0			0.0	1.1027422262232578	-0.24451015874557225	0.0	1.2002597414482659	-0.06456851477758813	0.0	1.1903580481418927	-0.1857035810637958	0.0	0.9842241172495098	-0.2698653058078977	0.0	0.9090423172404399	-0.49173495560503916	0.0	0.9586772741749681	-0.708288042032207	0.0	1.16584784106143	-0.32237412873405613	0.0	1.2170012659650993	-0.5279109327449739	0.0	1.2146080666258818	-0.35302506574182224	0.0
79	2.6511261261261265	1.0600786142497682	-0.6972880700609185	0.0	0.996784951630827	-0.7015648091738448	0.0	0.9791745274908413	-1.0375560286744043	0.0	0.9653287438343363	-1.080444040164662	0.0			0.0			0.0			0.0	1.109737663204874	-0.7133469466164062	0.0	1.0684366011491155	-1.0357515283464687	0.0	1.0430951527574222	-1.0770900980726184	0.0			0.0			0.0			0.0	1.1014173912360123	-0.24278886206773964	0.0	1.1976010421987355	-0.061327273191305945	0.0	1.188001651820395	-0.18164726073354961	0.0	0.9819205814889047	-0.26853116539411037	0.0	0.9074249479687724	-0.4919316658137064	0.0	0.9602260570523777	-0.7070524656092512	0.0	1.1647614846545942	-0.3215251188871394	0.0	1.2174192039081302	-0.5262884814862593	0.0	1.2123824462984683	-0.35058215605082	0.0
80	2.684684684684685	1.058970423502981	-0.698491111752591	0.0	0.9954829052976798	-0.7031856815035508	0.0	0.9785286007629979	-1.0389515602848205	0.0	0.964255954454402	-1.0799359547358423	0.0			0.0			0.0			0.0	1.1088443953218006	-0.7147698972421124	0.0	1.069161003824056	-1.0370723898558283	0.0	1.0436330257326714	-1.0764621305937248	0.0			0.0			0.0			0.0	1.100069586410099	-0.24107031153069863	0.0	1.194870349244594	-0.05805186933954245	0.0	1.1856360481026202	-0.17747994818466367	0.0	0.9794140124421004	-0.2673231123538449	0.0	0.9056458348162447	-0.4921030370380211	0.0	0.9608180232807224	-0.7061786171254841	0.0	1.1638402373237584	-0.32071303769962334	0.0	1.2179002198890843	-0.5247959244826299	0.0	1.2099840625402807	-0.34838242893831667	0.0
81	2.7182432432432435	1.057949300345386	-0.6998018338737734	0.0	0.9943602669968998	-0.7046456786607486	0.0	0.9778901622158727	-1.0398851127159545	0.0	0.9630815953212309	-1.0794104629898007	0.0			0.0			0.0			0.0	1.1081402410830148	-0.7162548989349997	0.0	1.0701613384925712	-1.038084401877605	0.0	1.044517221179369	-1.0759243576708788	0.0			0.0			0.0			0.0	1.098664363453982	-0.23930846789497318	0.0	1.192103505265342	-0.054741903231992926	0.0	1.1833845235471274	-0.17335166364726637	0.0	0.9766862836240499	-0.2662692255051979	0.0	0.9036768015205923	-0.4921290635285074	0.0	0.9601522154976497	-0.7056843128129408	0.0	1.163132735451085	-0.31970569271755084	0.0	1.2184450210434556	-0.523423740647418	0.0	1.2074703494845271	-0.34661476173493017	0.0
82	2.7518018018018022	1.0572020767150836	-0.700853955461904	0.0	0.9936214275721276	-0.7055942836057287	0.0	0.9772964624897189	-1.0402687270510775	0.0	0.9618055100314442	-1.079017357769431	0.0			0.0			0.0			0.0	1.1076833787514744	-0.7173915138136364	0.0	1.0710523900650644	-1.0386820013132683	0.0	1.0453593030677693	-1.0755645905459768	0.0			0.0			0.0			0.0	1.0971288964078894	-0.23748624737203552	0.0	1.1893620849786048	-0.05140183965983697	0.0	1.1813098170374787	-0.16943057278276957	0.0	0.9738923489136928	-0.2653068686748731	0.0	0.9014609331760988	-0.49195337882234325	0.0	0.9580969071371298	-0.7056019782208139	0.0	1.1623955100476995	-0.31839878961570733	0.0	1.2190467500196807	-0.5222627464559708	0.0	1.2049191104677774	-0.3454196965755697	0.0
83	2.7853603603603605	1.0568156907996111	-0.7014394105109331	0.0	0.9934220748579795	-0.7059295003517012	0.0	0.9769036783792181	-1.0401402618999132	0.0	0.9606924166126396	-1.0789184378907013	0.0			0.0			0.0			0.0	1.1074595243035363	-0.7179735208081583	0.0	1.0716209736530753	-1.0389028553412192	0.0	1.0460211009738818	-1.0754593698522839	0.0			0.0			0.0			0.0	1.0954661424593204	-0.23563606143912377	0.0	1.1867189041006045	-0.0480367135610156	0.0	1.179396136709094	-0.16584178237271768	0.0	0.9712402177144208	-0.2643812348694288	0.0	0.8989743035789836	-0.49169538690518416	0.0	0.9547526033164374	-0.7060633660760339	0.0	1.1614664981056269	-0.3168461220187736	0.0	1.2196724247387298	-0.5214424631098351	0.0	1.20245278301373	-0.34482699078015916	0.0
84	2.818918918918919	1.0567861423773588	-0.7015646850695704	0.0	0.9937627685894221	-0.7058337275421789	0.0	0.9767703801477386	-1.0396901225212853	0.0	0.9599950985218095	-1.0792628824411636	0.0			0.0			0.0			0.0	1.1075156604357361	-0.7180094897062669	0.0	1.0718591863539408	-1.038888288583367	0.0	1.046595367472047	-1.075708924711594	0.0			0.0			0.0			0.0	1.0937904532357106	-0.23383033065657585	0.0	1.1842301050465402	-0.04467497190058127	0.0	1.1775851317595065	-0.1626530952601721	0.0	0.9688412791146717	-0.2635192061382595	0.0	0.8962625531497531	-0.4916302660779447	0.0	0.950356627300802	-0.7073235867840931	0.0	1.1605414776163774	-0.31517681330067093	0.0	1.2202563649594105	-0.5209922118726997	0.0	1.2001996733906133	-0.344709506674736	0.0
85	2.852477477477478	1.0570497399450742	-0.7013357862189507	0.0	0.9944956397388577	-0.7055715768652441	0.0	0.9767803042907915	-1.0391512912551588	0.0	0.9597589362486455	-1.080041555782657	0.0			0.0			0.0			0.0	1.1079510993974906	-0.7176058130519178	0.0	1.0718255173977471	-1.0387449769981068	0.0	1.0471875015922567	-1.0763549727851769	0.0			0.0			0.0			0.0	1.0922513053306877	-0.23212302502811594	0.0	1.1819090514104207	-0.04137671720580352	0.0	1.1758625863492038	-0.15987405959541096	0.0	0.9666820535633619	-0.2628094258562579	0.0	0.8934281229056806	-0.4919690901836021	0.0	0.9451091101756887	-0.7095878458012373	0.0	1.160009651801708	-0.31346812291759224	0.0	1.220708611375439	-0.5208241891519642	0.0	1.1982281171239402	-0.3448796960552961	0.0
86	2.886036036036036	1.0575215755104612	-0.7009274178066862	0.0	0.9954259088344908	-0.7053397572670644	0.0	0.9767687319715657	-1.0387123186606178	0.0	0.9598623301498	-1.0810215675377486	0.0			0.0			0.0			0.0	1.1087778827682628	-0.7169788456391035	0.0	1.0716238721137845	-1.0385362450897244	0.0	1.0479198132927365	-1.0772415502771258	0.0			0.0			0.0			0.0	1.0909367661469633	-0.23053314434461775	0.0	1.1797767230248626	-0.03824941732204524	0.0	1.1743076610078174	-0.15746347815967385	0.0	0.964738671196124	-0.2623287272977082	0.0	0.8906237123567402	-0.4926991271610917	0.0	0.9391331700105565	-0.712828806479591	0.0	1.1600535417576736	-0.31172406606551556	0.0	1.2209188470392127	-0.5208093066925165	0.0	1.1965490061417792	-0.34524706212053524	0.0
